<?xml version="1.0" encoding="utf-8"?>
<!-- Generator: Adobe Illustrator 19.2.1, SVG Export Plug-In . SVG Version: 6.00 Build 0)  -->
<svg version="1.1" id="Layer_1" xmlns="http://www.w3.org/2000/svg" xmlns:xlink="http://www.w3.org/1999/xlink" x="0px" y="0px"
	 viewBox="0 0 595.3 841.9" style="enable-background:new 0 0 595.3 841.9;" xml:space="preserve">
<style type="text/css">
	.st0{clip-path:url(#SVGID_2_);fill:#FFF2CA;}
	.st1{clip-path:url(#SVGID_2_);fill:#F59C3B;}
	.st2{clip-path:url(#SVGID_2_);fill:#FFD11E;}
	.st3{clip-path:url(#SVGID_2_);}
	.st4{fill:#010202;}
</style>
<g>
	<defs>
		<rect id="SVGID_1_" x="-8.4" y="-3.2" width="603.7" height="872.1"/>
	</defs>
	<clipPath id="SVGID_2_">
		<use xlink:href="#SVGID_1_"  style="overflow:visible;"/>
	</clipPath>
	<path class="st0" d="M83.4,519.2c51.2,5.1,98.2,29.4,144.5,51.9c46.3,22.4,95.5,43.8,146.9,42.2c30.3-0.9,59.9-9.8,90.2-10.9
		c30.3-1.1,63.8,7.7,80.2,33.2c22.7,35.1-0.4,85.5-37.3,105.2c-36.9,19.7-81.5,16.5-122.7,9.3c-41.2-7.2-83-17.9-124.3-11.5
		c-72.3,11.2-130.6,72.7-203.6,77.5C6,819.3-46.2,790.7-70.9,745.6C-133.3,631.7-39.9,506.9,83.4,519.2z"/>
	<path class="st1" d="M149.4,313.7c29.1,54.6,119.3,50.3,148.1,105c15.2,28.8,6.9,65.5-12.1,92c-18.9,26.5-46.8,45-74,62.9
		c-32.5,21.4-65,42.8-97.5,64.2c-34.1,22.4-70.6,45.7-111.4,46.5c-45.6,0.9-88.3-27.8-113.2-66c-24.8-38.3-34-84.8-35.9-130.3
		c-4.5-107,33.1-267.9,122.7-338.7C13.5,119.7,57.7,117.4,98,145C164.2,190.3,117.8,254.5,149.4,313.7z"/>
	<path class="st2" d="M367.6-2.1c-9,28.6,1.7,60.1,18.1,85.2c16.4,25.1,38.3,46.2,55.4,70.9s29.7,54.9,23.5,84.3
		c-9.1,43-56,76.2-49.2,119.5c3.8,24.2,23.8,42.1,42.4,57.9c40.7,34.5,81.4,68.9,122.1,103.4c25,21.2,56.5,43.9,87.8,33.8
		c33.3-10.8,44.5-51.5,50.6-86c13.9-79.1,27.9-159.1,22.8-239.3C736,147.4,710,65.9,653.8,8.5C601.4-45,402-111.9,367.6-2.1z"/>
	<g class="st3">
		<path class="st4" d="M191.3,930.6c-25-21.4-14.5-62.3,7-93.3c1.3-1.9,2.7-3.8,4-5.8c18.2-26,38.9-55.5,29.5-85.2
			c-7.6-23.9-31.5-37-54.7-49.7c-24.1-13.2-49-26.8-55.5-52.7c-3.4-13.8-0.5-28,2.4-41.8c1.2-6,2.5-12.1,3.3-18.2
			c5.8-47.3-24.9-96.6-69.8-112.4c-44.9-15.7-99.7,3.7-124.7,44.2l-1.6-1c25.4-41.2,81.2-61,126.9-45c45.7,16,76.9,66.3,71.1,114.4
			c-0.7,6.1-2,12.3-3.3,18.3c-2.8,13.6-5.7,27.6-2.4,41c6.2,25,30.8,38.5,54.6,51.5c23.5,12.9,47.8,26.2,55.6,50.7
			c9.7,30.5-11.3,60.4-29.7,86.8c-1.4,1.9-2.7,3.8-4,5.7c-21,30.3-31.5,70.2-7.3,90.8L191.3,930.6z"/>
	</g>
	<g class="st3">
		<path class="st4" d="M745.3,449.6c-23.2,0-47-6.1-68.8-18c-33.6-18.4-58.2-48.2-67.5-81.9c-3.1-11.4-4.8-23.4-6.5-34.9
			c-2.6-18.3-5.3-37.2-13.8-53.8c-8.8-17.2-23.3-30.9-37.4-44.1c-10.8-10.2-22.1-20.7-30.8-32.9c-26.4-37.1-26.9-91.4-1.1-128.9
			C545.3,17.5,596-1.7,640.2,9.5l-0.5,1.8c-43.4-11-93.3,7.8-118.6,44.8c-25.3,37-24.8,90.3,1.1,126.8c8.6,12.1,19.7,22.5,30.5,32.7
			c14.2,13.3,28.8,27,37.7,44.6c8.6,16.8,11.3,35.9,13.9,54.4c1.6,11.5,3.3,23.4,6.5,34.7c9.2,33.2,33.4,62.6,66.6,80.7
			c33.1,18.1,71,22.7,103.9,12.5l0.6,1.8C770.2,447.8,757.8,449.6,745.3,449.6z"/>
	</g>
</g>
</svg>
