<?xml version="1.0" encoding="utf-8"?>
<!-- Generator: Adobe Illustrator 19.2.1, SVG Export Plug-In . SVG Version: 6.00 Build 0)  -->
<svg version="1.1" id="Layer_1" xmlns="http://www.w3.org/2000/svg" xmlns:xlink="http://www.w3.org/1999/xlink" x="0px" y="0px"
	 viewBox="0 0 595.3 841.9" style="enable-background:new 0 0 595.3 841.9;" xml:space="preserve">
<style type="text/css">
	.st0{clip-path:url(#SVGID_2_);fill:#FFF2CA;}
	.st1{clip-path:url(#SVGID_2_);fill:#FFD11E;}
	.st2{clip-path:url(#SVGID_2_);fill:#F59C3B;}
	.st3{clip-path:url(#SVGID_2_);}
	.st4{fill:#010202;}
</style>
<g>
	<defs>
		<rect id="SVGID_1_" x="-10.1" y="-9.2" width="611" height="882.5"/>
	</defs>
	<clipPath id="SVGID_2_">
		<use xlink:href="#SVGID_1_"  style="overflow:visible;"/>
	</clipPath>
	<path class="st0" d="M237.7-41.8c-22.5,27.6-25.8,69.2-8,100c12.8,22.2,34.3,37.6,52.5,55.7c18.1,18.1,33.9,42.3,29.8,67.6
		c-7.9,49.2-84.6,73.6-75.8,122.7c6.1,34.2,49,45.1,83.5,48.8c71.2,7.5,143.3,15,214,3.8c70.7-11.2,140.9-43.5,182.9-101.4
		c67.1-92.5,39.8-235-49.1-306.8c-62.4-50.4-147.5-65.9-225.3-51.2c-36.4,6.9-69.4,22.8-105.7,28.6C298.3-67.9,266-76.6,237.7-41.8z
		"/>
	<path class="st1" d="M457.3,282.9c-25.2,46.7-73.3,75.3-115.5,107.4c-42.2,32.2-83,76.6-81.4,129.6c2,65.3,65.2,109.4,121.5,142.6
		c61.3,36,126.7,73.2,197.8,71.7c96-2,178.1-76.6,219.6-163.1c38.8-80.7,49.5-176.3,21.2-261.2C794.2,231,716.3,137.7,634,112.8
		C515.8,77.1,497.3,208.5,457.3,282.9z"/>
	<path class="st2" d="M498.8,462.3c-69.4-8.3-142,16-192.5,64.4c-26.1,25-46.7,56.2-76.7,76.4c-33.5,22.5-74.9,28.8-113.6,40.1
		C32,667.7-44,718.5-98.6,786.7c-37.1,46.2-64.5,112.1-34.7,163.4c32.5,55.9,110.3,60,174.9,57.4c109-4.5,218.1-9,327.1-13.5
		c87.2-3.6,176.2-7.6,257.5-39.2c81.3-31.6,154.9-96.6,173.1-181.9c17.2-80.8-25.3-147.9-91-188.7
		C638.8,541.1,588,472.9,498.8,462.3z"/>
	<g class="st3">
		<path class="st4" d="M97.6,935.4C78,912,72.5,878.1,82.8,844.9c10.3-33.2,33.9-58,63.3-66.3c32.2-9.1,66.4-1.2,99.4,6.5
			c35.9,8.3,73.1,16.9,106.6,2.9c36.7-15.4,57.2-53,77.1-89.3c20.9-38.2,42.6-77.7,83-90.8c38.4-12.4,79.6,4.5,118.5,22.8
			l119.2,56.2l-0.8,1.7l-119.2-56.2c-38.6-18.2-79.4-34.9-117.2-22.7c-39.8,12.8-61.2,52-82,89.9c-20,36.6-40.7,74.4-78,90.1
			c-34,14.3-71.5,5.6-107.7-2.8c-32.8-7.6-66.8-15.5-98.5-6.5c-28.7,8.1-51.9,32.4-62,65c-10.1,32.6-4.7,65.7,14.5,88.7L97.6,935.4z
			"/>
	</g>
	<g class="st3">
		<path class="st4" d="M683.9,541.9c-26.6,0-50.2-24.4-63.5-48c-3.1-5.4-6-11.1-8.9-16.6c-11.9-22.8-24.2-46.4-46.6-58.2
			c-19.1-10.1-41.6-9.2-63.3-8.5c-7.7,0.3-15.7,0.6-23.4,0.4c-32-0.8-65.5-16.9-67.6-46.1c-1.6-23,15.7-38.1,34.1-54.2
			c14-12.2,28.4-24.8,34.2-41.2c9.1-25.7-5.6-52.1-15.2-65.5c-5.8-8.2-12.6-16-19.1-23.6c-8.7-10.1-17.7-20.5-24.7-32.1
			c-17.5-29-20.5-66-8.2-101.7c12.3-35.6,37.6-62.9,69.3-74.8l0.7,1.8c-31.2,11.7-56,38.6-68.2,73.7c-12.2,35.1-9.2,71.6,8,100.1
			c6.9,11.5,15.9,21.8,24.5,31.9c6.5,7.6,13.3,15.4,19.2,23.7c9.8,13.8,24.7,40.8,15.4,67.3c-6,16.9-20.6,29.7-34.7,42
			c-18,15.8-35.1,30.6-33.5,52.6c2,27.7,35.3,43.5,65.8,44.3c7.7,0.2,15.6-0.1,23.3-0.4c22-0.8,44.7-1.6,64.2,8.7
			c22.8,12,35.3,35.9,47.4,59c2.9,5.5,5.8,11.2,8.9,16.5c15.1,26.6,43.5,54.4,74,45.2l0.5,1.8C692.4,541.3,688.1,541.9,683.9,541.9z
			"/>
	</g>
</g>
</svg>
