<?xml version="1.0" encoding="utf-8"?>
<!-- Generator: Adobe Illustrator 19.2.1, SVG Export Plug-In . SVG Version: 6.00 Build 0)  -->
<svg version="1.1" id="Layer_1" xmlns="http://www.w3.org/2000/svg" xmlns:xlink="http://www.w3.org/1999/xlink" x="0px" y="0px"
	 viewBox="0 0 595.3 841.9" style="enable-background:new 0 0 595.3 841.9;" xml:space="preserve">
<style type="text/css">
	.st0{clip-path:url(#SVGID_2_);fill:#FFF2CA;}
	.st1{clip-path:url(#SVGID_2_);fill:#FFD11E;}
	.st2{clip-path:url(#SVGID_2_);fill:#F59C3B;}
	.st3{clip-path:url(#SVGID_2_);}
	.st4{fill:#010202;}
</style>
<g>
	<defs>
		<rect id="SVGID_1_" x="-10.1" y="-9.2" width="611" height="882.5"/>
	</defs>
	<clipPath id="SVGID_2_">
		<use xlink:href="#SVGID_1_"  style="overflow:visible;"/>
	</clipPath>
	<path class="st0" d="M778.7,406.3C796.4,428,799,460.8,785,485c-10.1,17.5-27,29.6-41.3,43.8c-14.3,14.2-26.7,33.3-23.5,53.2
		c6.3,38.7,66.6,58,59.7,96.6c-4.8,26.9-38.6,35.5-65.7,38.4c-56,5.9-112.8,11.8-168.4,3c-55.6-8.8-110.9-34.2-144-79.8
		c-52.8-72.8-31.3-185,38.6-241.5c49.1-39.7,116.1-51.9,177.4-40.3c28.7,5.4,54.6,17.9,83.2,22.5C731,385.7,756.4,378.9,778.7,406.3
		z"/>
	<path class="st1" d="M496.2,211.4c-17,31.6-49.6,50.9-78.1,72.7c-28.5,21.8-56.2,51.8-55.1,87.7c1.3,44.2,44.1,74,82.2,96.4
		c41.4,24.4,85.7,49.5,133.7,48.5c64.9-1.4,120.4-51.8,148.5-110.3c26.2-54.6,33.5-119.2,14.4-176.7
		c-17.7-53.3-70.5-116.4-126.1-133.3C535.8,72.2,523.3,161.1,496.2,211.4z"/>
	<path class="st2" d="M19.6,556.9c49.8-5.9,101.9,11.5,138.1,46.2c18.7,18,33.5,40.3,55.1,54.8c24,16.2,53.7,20.7,81.5,28.8
		c60.2,17.6,114.8,54.1,154,103c26.6,33.2,46.3,80.5,24.9,117.3c-23.3,40.1-79.1,43.1-125.5,41.2c-78.3-3.2-156.5-6.4-234.8-9.7
		c-62.6-2.6-126.5-5.4-184.8-28.1C-130.1,887.7-183,841.1-196,779.8c-12.3-58,18.2-106.1,65.3-135.4
		C-80.9,613.5-44.5,564.5,19.6,556.9z"/>
	<g class="st3">
		<path class="st4" d="M531,951.9c19.5-23.4,25.1-57.2,14.8-90.4c-10.3-33.2-33.9-58-63.3-66.3c-32.2-9.1-66.4-1.2-99.4,6.5
			c-35.9,8.3-73.1,16.9-106.6,2.9c-36.7-15.4-57.2-53-77.1-89.3c-20.9-38.2-42.6-77.7-83-90.8C78.1,612.2,36.8,629-2.1,647.3
			l-119.2,56.2l0.8,1.7L-1.3,649c38.6-18.2,79.4-34.9,117.2-22.7c39.8,12.8,61.2,52,82,89.9c20,36.6,40.7,74.4,78,90.1
			c34,14.3,71.5,5.6,107.7-2.8c32.8-7.6,66.8-15.5,98.5-6.5c28.7,8.1,51.9,32.4,62,65c10.1,32.6,4.7,65.7-14.5,88.7L531,951.9z"/>
	</g>
	<g class="st3">
		<path class="st4" d="M590.3,770.7c-24.2-10.9-35.7-42.9-38.1-69.9c-0.6-6.2-0.9-12.6-1.3-18.8c-1.5-25.7-3-52.3-18.5-72.2
			c-13.2-17-34.1-25.5-54.2-33.8c-7.2-2.9-14.5-6-21.5-9.3c-28.8-13.9-52.7-42.4-42.6-69.8c8-21.6,30-28.3,53.4-35.3
			c17.7-5.4,36.1-10.9,48.1-23.5c18.8-19.7,16.3-49.8,13.2-66c-1.9-9.9-4.9-19.8-7.7-29.4c-3.8-12.8-7.7-26-9.3-39.4
			c-4-33.6,8.5-68.6,34.4-96c25.9-27.4,60.2-41.8,94-39.6l-0.1,1.9c-33.2-2.1-66.9,12.1-92.5,39.1c-25.5,27-37.9,61.4-33.9,94.5
			c1.6,13.3,5.5,26.4,9.2,39.1c2.8,9.6,5.8,19.5,7.7,29.5c3.2,16.6,5.8,47.3-13.7,67.6c-12.4,13-31,18.6-49,24
			c-22.9,6.9-44.6,13.5-52.2,34.2c-9.6,26.1,14.3,54.2,41.7,67.5c6.9,3.3,14.3,6.4,21.4,9.3c20.4,8.3,41.4,16.9,55,34.4
			c15.9,20.4,17.4,47.3,18.9,73.2c0.4,6.2,0.7,12.6,1.3,18.7c2.8,30.5,17.2,67.5,48.8,71.7l-0.2,1.9
			C598.2,773.7,594.1,772.5,590.3,770.7z"/>
	</g>
</g>
</svg>
