<?xml version="1.0" encoding="utf-8"?>
<!-- Generator: Adobe Illustrator 19.2.1, SVG Export Plug-In . SVG Version: 6.00 Build 0)  -->
<svg version="1.1" id="Layer_1" xmlns="http://www.w3.org/2000/svg" xmlns:xlink="http://www.w3.org/1999/xlink" x="0px" y="0px"
	 viewBox="0 0 595.3 841.9" style="enable-background:new 0 0 595.3 841.9;" xml:space="preserve">
<style type="text/css">
	.st0{clip-path:url(#SVGID_2_);fill:#F59C3B;}
	.st1{clip-path:url(#SVGID_2_);fill:#FFD11E;}
	.st2{clip-path:url(#SVGID_2_);fill:#FFF2CA;}
	.st3{clip-path:url(#SVGID_2_);}
	.st4{fill:#010202;}
</style>
<g>
	<defs>
		<rect id="SVGID_1_" x="-7.4" y="-5.2" width="608" height="878.2"/>
	</defs>
	<clipPath id="SVGID_2_">
		<use xlink:href="#SVGID_1_"  style="overflow:visible;"/>
	</clipPath>
	<path class="st0" d="M206,292.8c-4.1,48.5-32.7,103.7-1.3,141c36.8,43.7,124.1,16.5,152,66.3c28.3,50.4-42.1,113.9-18.3,166.6
		c14.5,32.1,57.3,40.6,91.8,33.6c34.5-7.1,66.3-25.1,101.2-29.9c50.3-6.9,103.5,16.8,132,58.9c28.5,42,30.8,100.3,5.7,144.4
		c-24.4,43-70.8,69.9-118.9,81.8c-48,11.9-98.2,10.5-147.6,9.1c-95.9-2.8-191.7-5.5-287.6-8.3c-67.2-1.9-141.6-6.9-188.6-54.9
		c-45.5-46.5-50.2-118.1-52.3-183.2c-3.2-101.9-6.8-203.8-9.6-305.7c-2-71.9-3.7-159.8,48.2-217.6C-1.1,98.9,218.7,143.9,206,292.8z
		"/>
	<path class="st1" d="M348.2-38.9c-30.5,30.4-41.1,79.2-25.9,119.5c21.8,58.2,91,99.6,85.4,161.5c-3.7,41.6-42.4,79-30.7,119.1
		c7.9,27.3,37.9,43.4,66.3,44.4c28.4,1,55.8-9.9,82.1-20.5c28.8-11.7,57.7-23.3,86.5-35c22.2-9,44.8-18.2,63.5-33.2
		c31.7-25.6,48.9-65.8,54.6-106.2c10-71.3-14.1-146.6-63.6-198.8C603.2-54.7,423.4-114,348.2-38.9z"/>
	<path class="st2" d="M220.3-37.7c-7.9,28.9-3.8,63.8-25.4,84.5c-14,13.5-34.8,16.4-54.1,18.8C88.6,71.9,36.4,78.1-15.8,84.4
		c-22.2,2.7-46,5-65.8-5.4c-29.9-15.7-39.1-56.8-27.9-88.7C-98.3-41.6-71.8-65.5-44.1-85c82.7-58.2,184.8-88.3,285.8-84.3
		c33.5,1.3,120.4,18.2,80.2,59c-9.7,9.9-50.5,8.4-66.7,20.8C238.4-76.7,225.8-58,220.3-37.7z"/>
	<g class="st3">
		<path class="st4" d="M50.2,920.4c-2.9,0-5.9-0.4-8.7-1.2l0.5-1.8c8.4,2.4,16.8,1.2,25.1-3.7c13.1-7.7,24.3-24,28.6-41.5
			c2.1-8.7,3.3-17.9,4.5-26.8c2.3-17.5,4.7-35.6,14-50.9c12.4-20.1,35.5-33.6,70.8-41.3c7-1.5,14.3-2.8,21.3-4.1
			c20.1-3.6,40.8-7.4,59.1-16.7c23.9-12.1,44.9-38.6,38.9-65.8c-7.5-34.3-50.5-47.4-89.6-45.2c-6.1,0.3-12.5,0.9-18.6,1.4
			c-31.6,2.6-64.3,5.3-89.9-12.5C69.4,584.7,69.3,532,72.5,502.9c1-9,2.3-18.2,3.7-27.1c4.4-29.6,8.9-60.1,0.6-88.8
			c-9.7-33.7-37.8-61.7-71.6-71.2c-33.8-9.5-72.4-0.3-98.2,23.4l-1.3-1.4c26.4-24.1,65.6-33.5,100-23.8c34.4,9.7,63,38.1,72.9,72.5
			c8.4,29.1,3.8,59.9-0.6,89.6c-1.3,8.9-2.7,18.1-3.7,27.1c-3.1,28.7-3.1,80.7,32.9,105.7c25,17.4,57.3,14.7,88.6,12.1
			c6.1-0.5,12.5-1,18.6-1.4c40-2.3,83.7,11.3,91.5,46.7c6.2,28.1-15.4,55.4-39.9,67.9c-18.5,9.4-39.4,13.2-59.6,16.9
			c-7,1.3-14.2,2.6-21.2,4.1c-34.7,7.6-57.5,20.8-69.6,40.5c-9.2,14.9-11.5,32.8-13.8,50.1c-1.2,8.9-2.4,18.2-4.5,27
			c-4.3,18-15.9,34.8-29.4,42.7C62.2,918.7,56.2,920.4,50.2,920.4z"/>
	</g>
	<g class="st3">
		<path class="st4" d="M685,526.9c-44.1-1.5-94.2-3.2-137.1-23.6c-38.6-18.4-77.7-60.8-72.5-110.5c2.6-24.5,15.4-46.4,27.9-67.5
			c11.6-19.6,23.5-39.9,27.2-62.2c6.3-38.7-12.9-77-32.5-109.4c-2-3.4-4.1-6.8-6.2-10.2c-18.4-30.1-37.5-61.3-40.9-96.5
			c-2.3-23.4,5.5-48.7,20.2-66c11.1-13,25-20.5,40.3-21.5l0.1,1.9c-14.7,1-28.2,8.2-39,20.8c-14.4,17-22,41.8-19.8,64.7
			c3.4,34.8,22.3,65.7,40.7,95.7c2.1,3.4,4.2,6.8,6.2,10.2c19.8,32.7,39.1,71.4,32.7,110.7c-3.7,22.7-15.8,43.1-27.4,62.9
			c-12.3,20.9-25.1,42.6-27.6,66.7c-5.1,48.8,33.4,90.5,71.4,108.6c42.6,20.3,92.4,22,136.4,23.4L685,526.9z"/>
	</g>
</g>
</svg>
