<?xml version="1.0" encoding="utf-8"?>
<!-- Generator: Adobe Illustrator 19.2.1, SVG Export Plug-In . SVG Version: 6.00 Build 0)  -->
<svg version="1.1" id="Layer_1" xmlns="http://www.w3.org/2000/svg" xmlns:xlink="http://www.w3.org/1999/xlink" x="0px" y="0px"
	 viewBox="0 0 595.3 841.9" style="enable-background:new 0 0 595.3 841.9;" xml:space="preserve">
<style type="text/css">
	.st0{fill:#FFFFFF;}
	.st1{clip-path:url(#SVGID_2_);fill:#FFF2CA;}
	.st2{clip-path:url(#SVGID_2_);fill:#F59C3B;}
	.st3{clip-path:url(#SVGID_2_);fill:#FFD11E;}
	.st4{clip-path:url(#SVGID_2_);}
	.st5{fill:#010202;}
</style>
<rect x="-5.2" y="-22.8" class="st0" width="603.5" height="871.8"/>
<g>
	<defs>
		<rect id="SVGID_1_" x="-5.2" y="-22.8" width="603.5" height="871.8"/>
	</defs>
	<clipPath id="SVGID_2_">
		<use xlink:href="#SVGID_1_"  style="overflow:visible;"/>
	</clipPath>
	<path class="st1" d="M99.9,595.1C100,628.6,87.4,660.6,76,692c-11.4,31.5-22,64.7-17.5,97.8c2.6,19.5,10.3,38.1,13.1,57.6
		c2.7,19.5-0.7,41.8-16.1,54.1c-21.2,17-55.3,5.5-70.5-17.1c-15.2-22.5-16.1-51.6-14.2-78.7c1.9-27.1,6.1-54.8-0.8-81.1
		c-12-46-55.7-79.6-63.7-126.5c-5.6-33,9.4-68.6,37-87.6C12.7,462.5,99.7,514.5,99.9,595.1z"/>
	<path class="st2" d="M68.5,399.2c20.8,39.1,85.4,36,106,75.2c10.9,20.6,4.9,46.9-8.6,65.9c-13.6,19-33.5,32.2-53,45
		c-23.3,15.3-46.5,30.6-69.8,45.9c-24.4,16.1-50.6,32.7-79.8,33.3c-32.6,0.7-63.2-19.9-81-47.3c-17.8-27.4-24.3-60.7-25.7-93.3
		c-3.2-76.6,23.7-191.8,87.8-242.5c26.8-21.1,58.4-22.7,87.3-3C79.1,310.9,45.9,356.8,68.5,399.2z"/>
	<path class="st3" d="M397.2,134.1c-7.2,22.9,1.3,48.1,14.5,68.3c13.1,20.1,30.7,37.1,44.4,56.8c13.8,19.7,23.8,44,18.8,67.5
		c-7.3,34.4-44.9,61-39.4,95.8c3.1,19.4,19,33.7,34,46.4c32.6,27.6,65.2,55.2,97.8,82.8c20.1,17,45.3,35.2,70.3,27.1
		c26.7-8.6,35.7-41.2,40.5-68.9c11.1-63.4,22.3-127.5,18.3-191.7c-4.1-64.2-24.9-129.6-70-175.6C584.5,99.8,424.7,46.1,397.2,134.1z
		"/>
	<g class="st4">
		<path class="st5" d="M216.8,855.6c-21.3-18.3-12.4-53.2,6-79.6c1.1-1.6,2.3-3.3,3.4-4.9c15.5-22.2,33.2-47.4,25.2-72.7
			c-6.5-20.4-26.9-31.6-46.7-42.4c-20.6-11.3-41.8-22.9-47.3-44.9c-2.9-11.8-0.4-23.9,2-35.7c1.1-5.1,2.2-10.4,2.8-15.5
			c4.9-40.3-21.2-82.5-59.6-95.9C64.3,450.4,17.5,467-3.8,501.6l-1.4-0.8c21.7-35.2,69.3-52.1,108.3-38.4
			c39,13.7,65.7,56.5,60.6,97.6c-0.6,5.2-1.7,10.5-2.8,15.7c-2.4,11.6-4.9,23.6-2,35c5.3,21.4,26.3,32.8,46.6,43.9
			c20,11,40.8,22.3,47.4,43.3c8.2,26-9.6,51.6-25.4,74.1c-1.2,1.6-2.3,3.3-3.4,4.9c-17.9,25.9-26.8,59.9-6.3,77.5L216.8,855.6z"/>
	</g>
	<g class="st4">
		<path class="st5" d="M748.4,429.8c-23.1,0-47-6.1-68.7-18c-33.6-18.4-58.2-48.2-67.5-81.8c-3.1-11.4-4.8-23.3-6.5-34.9
			c-2.6-18.3-5.3-37.2-13.8-53.8c-8.8-17.2-23.3-30.9-37.4-44c-10.8-10.2-22-20.7-30.8-32.9c-26.4-37.1-26.9-91.3-1.1-128.9
			c25.7-37.6,76.5-56.7,120.6-45.5l-0.5,1.8c-43.4-11-93.3,7.8-118.6,44.8c-25.3,37-24.8,90.3,1.1,126.8
			c8.6,12.1,19.7,22.5,30.5,32.7c14.1,13.3,28.8,27,37.7,44.6c8.6,16.8,11.3,35.9,13.9,54.3c1.6,11.5,3.3,23.4,6.5,34.7
			c9.2,33.2,33.4,62.6,66.6,80.7c33.1,18.1,71,22.7,103.9,12.5l0.6,1.8C773.2,428,760.9,429.8,748.4,429.8z"/>
	</g>
</g>
</svg>
