<?xml version="1.0" encoding="utf-8"?>
<!-- Generator: Adobe Illustrator 19.2.1, SVG Export Plug-In . SVG Version: 6.00 Build 0)  -->
<svg version="1.1" id="Layer_1" xmlns="http://www.w3.org/2000/svg" xmlns:xlink="http://www.w3.org/1999/xlink" x="0px" y="0px"
	 viewBox="0 0 595.3 841.9" style="enable-background:new 0 0 595.3 841.9;" xml:space="preserve">
<style type="text/css">
	.st0{clip-path:url(#SVGID_2_);fill:#FFF2CA;}
	.st1{clip-path:url(#SVGID_2_);fill:#F59C3B;}
	.st2{clip-path:url(#SVGID_2_);fill:#FFD11E;}
	.st3{clip-path:url(#SVGID_2_);}
	.st4{fill:#010202;}
</style>
<g>
	<defs>
		<rect id="SVGID_1_" x="0.7" y="0" width="594.6" height="858.9"/>
	</defs>
	<clipPath id="SVGID_2_">
		<use xlink:href="#SVGID_1_"  style="overflow:visible;"/>
	</clipPath>
	<path class="st0" d="M91.1,514.5c50.4,5,96.7,29,142.4,51.1c45.6,22.1,94,43.1,144.7,41.6c29.8-0.9,59-9.6,88.8-10.8
		c29.8-1.1,62.8,7.6,79,32.7c22.3,34.6-0.4,84.2-36.7,103.6c-36.3,19.4-80.3,16.2-120.9,9.1c-40.6-7.1-81.7-17.7-122.4-11.4
		c-71.2,11-128.7,71.6-200.5,76.3c-50.6,3.3-102-24.9-126.3-69.3C-122.2,625.3-30.3,502.4,91.1,514.5z"/>
	<path class="st1" d="M156.1,312.1c28.7,53.8,117.5,49.5,145.9,103.5c14.9,28.4,6.8,64.5-11.9,90.6c-18.6,26.1-46.1,44.3-72.9,62
		c-32,21.1-64,42.1-96.1,63.2c-33.6,22.1-69.6,45-109.7,45.8c-44.9,0.9-87-27.4-111.5-65c-24.5-37.7-33.5-83.5-35.3-128.4
		c-4.4-105.4,32.6-263.8,120.8-333.6c36.8-29.1,80.3-31.3,120.1-4.1C170.8,190.6,125,253.8,156.1,312.1z"/>
	<path class="st2" d="M371.1,1.1c-8.8,28.2,1.6,59.2,17.8,83.9c16.1,24.8,37.7,45.5,54.6,69.8c16.9,24.2,29.3,54.1,23.2,83
		c-8.9,42.3-55.2,75-48.4,117.7c3.8,23.8,23.4,41.5,41.8,57.1c40.1,33.9,80.1,67.9,120.2,101.8c24.7,20.9,55.7,43.2,86.4,33.3
		c32.8-10.6,43.8-50.7,49.8-84.7c13.7-77.9,27.4-156.7,22.4-235.7c-5-78.9-30.6-159.3-86-215.8C601.3-41.2,404.9-107.1,371.1,1.1z"
		/>
	<g class="st3">
		<path class="st4" d="M197.4,919.6c-24.6-21.1-14.3-61.3,6.9-91.9c1.3-1.9,2.6-3.8,4-5.7c17.9-25.6,38.3-54.7,29-83.9
			c-7.5-23.5-31-36.4-53.9-48.9c-23.7-13-48.3-26.4-54.6-51.9c-3.4-13.6-0.5-27.6,2.3-41.2c1.2-5.9,2.5-12,3.2-17.9
			c5.7-46.5-24.5-95.2-68.8-110.7c-44.2-15.5-98.2,3.6-122.8,43.5l-1.6-1c25-40.6,79.9-60.1,125-44.3c45,15.8,75.8,65.3,70,112.6
			c-0.7,6-2,12.1-3.2,18.1c-2.8,13.4-5.6,27.2-2.4,40.4c6.2,24.7,30.3,37.9,53.7,50.7c23.1,12.7,47.1,25.8,54.7,50
			c9.5,30.1-11.1,59.5-29.3,85.5c-1.3,1.9-2.7,3.8-4,5.7c-20.7,29.9-31,69.1-7.2,89.5L197.4,919.6z"/>
	</g>
	<g class="st3">
		<path class="st4" d="M743,445.9c-22.8,0-46.3-6-67.7-17.8c-33.1-18.1-57.3-47.5-66.5-80.6c-3.1-11.2-4.8-23-6.4-34.4
			c-2.6-18-5.2-36.6-13.6-53c-8.7-17-23-30.4-36.8-43.4c-10.7-10-21.7-20.4-30.3-32.4c-26-36.6-26.5-90-1.1-127
			C546,20.3,596,1.5,639.5,12.5l-0.5,1.8C596.3,3.4,547.1,22,522.2,58.4c-24.9,36.4-24.5,88.9,1.1,124.9
			c8.5,11.9,19.4,22.2,30.1,32.2c13.9,13.1,28.4,26.6,37.2,43.9c8.5,16.6,11.1,35.4,13.7,53.5c1.6,11.3,3.3,23.1,6.4,34.2
			c9,32.7,32.9,61.7,65.6,79.5c32.6,17.8,69.9,22.3,102.3,12.3l0.5,1.8C767.5,444.2,755.4,445.9,743,445.9z"/>
	</g>
</g>
</svg>
